<svg class="border shadow-md" viewBox="0 0 971.52 546.48" style="width: 971.52px; height: 546.48px;" xmlns="http://www.w3.org/2000/svg" preserveAspectRatio="none"><rect class="bg" id="bg" x="0" y="0" width="971.52" height="546.48" fill="#ffffff"/><path d="M 0 -39.034285714285716 L 0 -39.03&#10;                L 65.00 -19.52&#10;                L 121.44 -39.03 L 121.44 -39.03&#10;                L 161.92 -3.03&#10;                L 242.88 -39.03 L 242.88 -39.03&#10;                L 310.88 -19.52&#10;                L 364.32 -39.03 L 364.32 -39.03&#10;                L 404.80 -19.03&#10;                L 485.76 -39.03 L 485.76 -39.03&#10;                L 526.24 -19.03&#10;                L 607.2 -39.03 L 607.2 -39.03&#10;                L 647.68 -19.52&#10;                L 728.6400000000001 -39.03 L 728.64 -39.03&#10;                L 786.64 -19.52&#10;                L 850.0799999999999 -39.03 L 850.0799999999999 -39.03&#10;                L 920.08 -11.03&#10;                L 971.52 -39.03 L 971.52 -39.03&#10;                L 1026.52 -12.03&#10;                L 1092.96 -39.03  V 546.48 H 0 V -39.03 Z" fill="#1B4785"/><path d="M 0 0 L 0 0.00&#10;                L 83.00 35.00&#10;                L 121.44 0.00 L 121.44 0.00&#10;                L 161.92 19.52&#10;                L 242.88 0.00 L 242.88 0.00&#10;                L 310.88 22.00&#10;                L 364.32 0.00 L 364.32 0.00&#10;                L 404.80 36.00&#10;                L 485.76 0.00 L 485.76 0.00&#10;                L 526.24 19.52&#10;                L 607.2 0.00 L 607.2 0.00&#10;                L 647.68 27.00&#10;                L 728.6400000000001 0.00 L 728.64 0.00&#10;                L 781.64 19.52&#10;                L 850.0799999999999 0.00 L 850.0799999999999 0.00&#10;                L 890.56 34.00&#10;                L 971.52 0.00 L 971.52 0.00&#10;                L 1055.52 19.52&#10;                L 1092.96 0.00  V 546.48 H 0 V 0.00 Z" fill="#19427d"/><path d="M 0 39.034285714285716 L -121.44 39.03&#10;                L -48.44 69.03&#10;                L 0 39.03 L 0 39.03&#10;                L 89.00 73.03&#10;                L 121.44 39.03 L 121.44 39.03&#10;                L 170.44 63.03&#10;                L 242.88 39.03 L 242.88 39.03&#10;                L 283.36 66.03&#10;                L 364.32 39.03 L 364.32 39.03&#10;                L 405.32 60.03&#10;                L 485.76 39.03 L 485.76000000000005 39.03&#10;                L 526.24 62.03&#10;                L 607.2 39.03 L 607.2 39.03&#10;                L 647.68 58.55&#10;                L 728.64 39.03 L 728.6399999999999 39.03&#10;                L 769.12 68.03&#10;                L 850.0799999999999 39.03 L 850.0799999999999 39.03&#10;                L 931.08 58.55&#10;                L 971.52 39.03  V 546.48 H 0 V 39.03 Z" fill="#173d75"/><path d="M 0 78.06857142857143 L 0 78.07&#10;                L 45.00 110.07&#10;                L 121.44 78.07 L 121.44 78.07&#10;                L 168.44 97.59&#10;                L 242.88 78.07 L 242.88 78.07&#10;                L 283.36 116.07&#10;                L 364.32 78.07 L 364.32 78.07&#10;                L 404.80 97.59&#10;                L 485.76 78.07 L 485.76 78.07&#10;                L 526.24 106.07&#10;                L 607.2 78.07 L 607.2 78.07&#10;                L 647.68 115.07&#10;                L 728.6400000000001 78.07 L 728.64 78.07&#10;                L 807.64 97.59&#10;                L 850.0799999999999 78.07 L 850.0799999999999 78.07&#10;                L 890.56 115.07&#10;                L 971.52 78.07 L 971.52 78.07&#10;                L 1021.52 101.07&#10;                L 1092.96 78.07  V 546.48 H 0 V 78.07 Z" fill="#15386d"/><path d="M 0 117.10285714285715 L -121.44 117.10&#10;                L -80.96 138.10&#10;                L 0 117.10 L 0 117.10&#10;                L 40.48 138.10&#10;                L 121.44 117.10 L 121.44 117.10&#10;                L 207.44 136.62&#10;                L 242.88 117.10 L 242.88 117.10&#10;                L 283.36 152.10&#10;                L 364.32 117.10 L 364.32 117.10&#10;                L 404.80 154.10&#10;                L 485.76 117.10 L 485.76000000000005 117.10&#10;                L 526.24 154.10&#10;                L 607.2 117.10 L 607.2 117.10&#10;                L 687.20 136.62&#10;                L 728.64 117.10 L 728.6399999999999 117.10&#10;                L 777.64 136.62&#10;                L 850.0799999999999 117.10 L 850.0799999999999 117.10&#10;                L 890.56 136.62&#10;                L 971.52 117.10  V 546.48 H 0 V 117.10 Z" fill="#133365"/><path d="M 0 156.13714285714286 L 0 156.14&#10;                L 82.00 175.65&#10;                L 121.44 156.14 L 121.44 156.14&#10;                L 165.44 175.65&#10;                L 242.88 156.14 L 242.88 156.14&#10;                L 283.36 175.65&#10;                L 364.32 156.14 L 364.32 156.14&#10;                L 450.32 175.65&#10;                L 485.76 156.14 L 485.76 156.14&#10;                L 548.76 175.65&#10;                L 607.2 156.14 L 607.2 156.14&#10;                L 675.20 181.14&#10;                L 728.6400000000001 156.14 L 728.64 156.14&#10;                L 815.64 176.14&#10;                L 850.0799999999999 156.14 L 850.0799999999999 156.14&#10;                L 901.08 184.14&#10;                L 971.52 156.14 L 971.52 156.14&#10;                L 1012.00 175.65&#10;                L 1092.96 156.14  V 546.48 H 0 V 156.14 Z" fill="#112e5d"/><path d="M 0 195.17142857142858 L -121.44 195.17&#10;                L -59.44 214.69&#10;                L 0 195.17 L 0 195.17&#10;                L 78.00 214.69&#10;                L 121.44 195.17 L 121.44 195.17&#10;                L 211.44 214.69&#10;                L 242.88 195.17 L 242.88 195.17&#10;                L 283.36 228.17&#10;                L 364.32 195.17 L 364.32 195.17&#10;                L 404.80 217.17&#10;                L 485.76 195.17 L 485.76000000000005 195.17&#10;                L 540.76 231.17&#10;                L 607.2 195.17 L 607.2 195.17&#10;                L 667.20 214.69&#10;                L 728.64 195.17 L 728.6399999999999 195.17&#10;                L 807.64 214.69&#10;                L 850.0799999999999 195.17 L 850.0799999999999 195.17&#10;                L 927.08 215.17&#10;                L 971.52 195.17  V 546.48 H 0 V 195.17 Z" fill="#0f2955"/><path d="M 0 234.2057142857143 L 0 234.21&#10;                L 88.00 253.72&#10;                L 121.44 234.21 L 121.44 234.21&#10;                L 194.44 272.21&#10;                L 242.88 234.21 L 242.88 234.21&#10;                L 323.88 256.21&#10;                L 364.32 234.21 L 364.32 234.21&#10;                L 404.80 253.72&#10;                L 485.76 234.21 L 485.76 234.21&#10;                L 535.76 253.72&#10;                L 607.2 234.21 L 607.2 234.21&#10;                L 647.68 268.21&#10;                L 728.6400000000001 234.21 L 728.64 234.21&#10;                L 769.12 272.21&#10;                L 850.0799999999999 234.21 L 850.0799999999999 234.21&#10;                L 894.08 259.21&#10;                L 971.52 234.21 L 971.52 234.21&#10;                L 1043.52 253.72&#10;                L 1092.96 234.21  V 546.48 H 0 V 234.21 Z" fill="#0d244d"/><path d="M 0 273.24 L -121.44 273.24&#10;                L -73.44 292.76&#10;                L 0 273.24 L 0 273.24&#10;                L 82.00 292.76&#10;                L 121.44 273.24 L 121.44 273.24&#10;                L 189.44 292.76&#10;                L 242.88 273.24 L 242.88 273.24&#10;                L 284.88 296.24&#10;                L 364.32 273.24 L 364.32 273.24&#10;                L 404.80 292.76&#10;                L 485.76 273.24 L 485.76000000000005 273.24&#10;                L 526.24 292.76&#10;                L 607.2 273.24 L 607.2 273.24&#10;                L 647.68 292.76&#10;                L 728.64 273.24 L 728.6399999999999 273.24&#10;                L 792.64 292.76&#10;                L 850.0799999999999 273.24 L 850.0799999999999 273.24&#10;                L 901.08 292.76&#10;                L 971.52 273.24  V 546.48 H 0 V 273.24 Z" fill="#0b1f45"/><path d="M 0 312.2742857142857 L 0 312.27&#10;                L 40.48 331.79&#10;                L 121.44 312.27 L 121.44 312.27&#10;                L 161.92 346.27&#10;                L 242.88 312.27 L 242.88 312.27&#10;                L 283.88 331.79&#10;                L 364.32 312.27 L 364.32 312.27&#10;                L 440.32 331.79&#10;                L 485.76 312.27 L 485.76 312.27&#10;                L 526.24 338.27&#10;                L 607.2 312.27 L 607.2 312.27&#10;                L 686.20 344.27&#10;                L 728.6400000000001 312.27 L 728.64 312.27&#10;                L 769.12 348.27&#10;                L 850.0799999999999 312.27 L 850.0799999999999 312.27&#10;                L 890.56 349.27&#10;                L 971.52 312.27 L 971.52 312.27&#10;                L 1012.00 342.27&#10;                L 1092.96 312.27  V 546.48 H 0 V 312.27 Z" fill="#091a3d"/><path d="M 0 351.30857142857144 L -121.44 351.31&#10;                L -80.96 370.83&#10;                L 0 351.31 L 0 351.31&#10;                L 68.00 370.83&#10;                L 121.44 351.31 L 121.44 351.31&#10;                L 163.44 380.31&#10;                L 242.88 351.31 L 242.88 351.31&#10;                L 283.36 370.83&#10;                L 364.32 351.31 L 364.32 351.31&#10;                L 404.80 370.83&#10;                L 485.76 351.31 L 485.76000000000005 351.31&#10;                L 563.76 370.83&#10;                L 607.2 351.31 L 607.2 351.31&#10;                L 647.68 386.31&#10;                L 728.64 351.31 L 728.6399999999999 351.31&#10;                L 775.64 370.83&#10;                L 850.0799999999999 351.31 L 850.0799999999999 351.31&#10;                L 890.56 370.83&#10;                L 971.52 351.31  V 546.48 H 0 V 351.31 Z" fill="#071535"/><path d="M 0 390.34285714285716 L 0 390.34&#10;                L 90.00 409.86&#10;                L 121.44 390.34 L 121.44 390.34&#10;                L 171.44 424.34&#10;                L 242.88 390.34 L 242.88 390.34&#10;                L 283.36 410.34&#10;                L 364.32 390.34 L 364.32 390.34&#10;                L 419.32 409.86&#10;                L 485.76 390.34 L 485.76 390.34&#10;                L 552.76 409.86&#10;                L 607.2 390.34 L 607.2 390.34&#10;                L 673.20 409.86&#10;                L 728.6400000000001 390.34 L 728.64 390.34&#10;                L 818.64 409.86&#10;                L 850.0799999999999 390.34 L 850.0799999999999 390.34&#10;                L 890.56 409.86&#10;                L 971.52 390.34 L 971.52 390.34&#10;                L 1012.00 409.86&#10;                L 1092.96 390.34  V 546.48 H 0 V 390.34 Z" fill="#05102d"/><path d="M 0 429.37714285714287 L -121.44 429.38&#10;                L -35.44 449.38&#10;                L 0 429.38 L 0 429.38&#10;                L 86.00 450.38&#10;                L 121.44 429.38 L 121.44 429.38&#10;                L 161.92 454.38&#10;                L 242.88 429.38 L 242.88 429.38&#10;                L 322.88 448.89&#10;                L 364.32 429.38 L 364.32 429.38&#10;                L 404.80 455.38&#10;                L 485.76 429.38 L 485.76000000000005 429.38&#10;                L 526.24 450.38&#10;                L 607.2 429.38 L 607.2 429.38&#10;                L 647.68 450.38&#10;                L 728.64 429.38 L 728.6399999999999 429.38&#10;                L 800.64 466.38&#10;                L 850.0799999999999 429.38 L 850.0799999999999 429.38&#10;                L 896.08 448.89&#10;                L 971.52 429.38  V 546.48 H 0 V 429.38 Z" fill="#030b25"/><path d="M 0 468.4114285714286 L 0 468.41&#10;                L 71.00 487.93&#10;                L 121.44 468.41 L 121.44 468.41&#10;                L 161.92 487.93&#10;                L 242.88 468.41 L 242.88 468.41&#10;                L 330.88 487.93&#10;                L 364.32 468.41 L 364.32 468.41&#10;                L 404.80 487.93&#10;                L 485.76 468.41 L 485.76 468.41&#10;                L 546.76 487.93&#10;                L 607.2 468.41 L 607.2 468.41&#10;                L 665.20 487.93&#10;                L 728.6400000000001 468.41 L 728.64 468.41&#10;                L 772.64 503.41&#10;                L 850.0799999999999 468.41 L 850.0799999999999 468.41&#10;                L 923.08 499.41&#10;                L 971.52 468.41 L 971.52 468.41&#10;                L 1012.00 491.41&#10;                L 1092.96 468.41  V 546.48 H 0 V 468.41 Z" fill="#01061d"/><path d="M 0 507.4457142857143 L -121.44 507.45&#10;                L -80.96 526.96&#10;                L 0 507.45 L 0 507.45&#10;                L 40.48 526.96&#10;                L 121.44 507.45 L 121.44 507.45&#10;                L 190.44 526.96&#10;                L 242.88 507.45 L 242.88 507.45&#10;                L 332.88 529.45&#10;                L 364.32 507.45 L 364.32 507.45&#10;                L 422.32 526.96&#10;                L 485.76 507.45 L 485.76000000000005 507.45&#10;                L 565.76 526.96&#10;                L 607.2 507.45 L 607.2 507.45&#10;                L 647.68 538.45&#10;                L 728.64 507.45 L 728.6399999999999 507.45&#10;                L 771.64 545.45&#10;                L 850.0799999999999 507.45 L 850.0799999999999 507.45&#10;                L 890.56 526.96&#10;                L 971.52 507.45  V 546.48 H 0 V 507.45 Z" fill="#000115"/></svg>