<svg xmlns="http://www.w3.org/2000/svg" version="1.1" xmlns:xlink="http://www.w3.org/1999/xlink" xmlns:svgjs="http://svgjs.com/svgjs" width="1440" height="560" preserveAspectRatio="none" viewBox="0 0 1440 560"><g mask="url(&quot;#SvgjsMask1000&quot;)" fill="none"><rect width="1440" height="560" x="0" y="0" fill="#0e2a47"></rect><path d="M174.03 -69.56L238.98 -32.06L238.98 42.94L174.03 80.44L109.07 42.94L109.07 -32.06zM174.03 380.44L238.98 417.94L238.98 492.94L174.03 530.44L109.07 492.94L109.07 417.94zM303.94 155.44L368.89 192.94L368.89 267.94L303.94 305.44L238.98 267.94L238.98 192.94zM368.89 267.94L433.84 305.44L433.84 380.44L368.89 417.94L303.94 380.44L303.94 305.44zM303.94 380.44L368.89 417.94L368.89 492.94L303.94 530.44L238.98 492.94L238.98 417.94zM433.84 155.44L498.8 192.94L498.8 267.94L433.84 305.44L368.89 267.94L368.89 192.94zM498.8 492.94L563.75 530.44L563.75 605.44L498.8 642.94L433.84 605.44L433.84 530.44zM628.7 42.94L693.66 80.44L693.66 155.44L628.7 192.94L563.75 155.44L563.75 80.44zM563.75 155.44L628.7 192.94L628.7 267.94L563.75 305.44L498.8 267.94L498.8 192.94zM563.75 380.44L628.7 417.94L628.7 492.94L563.75 530.44L498.8 492.94L498.8 417.94zM628.7 492.94L693.66 530.44L693.66 605.44L628.7 642.94L563.75 605.44L563.75 530.44zM693.66 380.44L758.61 417.94L758.61 492.94L693.66 530.44L628.7 492.94L628.7 417.94zM823.56 -69.56L888.52 -32.06L888.52 42.94L823.56 80.44L758.61 42.94L758.61 -32.06zM823.56 155.44L888.52 192.94L888.52 267.94L823.56 305.44L758.61 267.94L758.61 192.94zM888.52 492.94L953.47 530.44L953.47 605.44L888.52 642.94L823.56 605.44L823.56 530.44zM1018.43 42.94L1083.38 80.44L1083.38 155.44L1018.43 192.94L953.47 155.44L953.47 80.44zM953.47 155.44L1018.43 192.94L1018.43 267.94L953.47 305.44L888.52 267.94L888.52 192.94zM953.47 380.44L1018.43 417.94L1018.43 492.94L953.47 530.44L888.52 492.94L888.52 417.94zM1018.43 492.94L1083.38 530.44L1083.38 605.44L1018.43 642.94L953.47 605.44L953.47 530.44zM1213.29 380.44L1278.24 417.94L1278.24 492.94L1213.29 530.44L1148.33 492.94L1148.33 417.94zM1278.24 492.94L1343.19 530.44L1343.19 605.44L1278.24 642.94L1213.29 605.44L1213.29 530.44zM1408.15 42.94L1473.1 80.44L1473.1 155.44L1408.15 192.94L1343.19 155.44L1343.19 80.44zM1343.19 155.44L1408.15 192.94L1408.15 267.94L1343.19 305.44L1278.24 267.94L1278.24 192.94zM1473.1 -69.56L1538.06 -32.06L1538.06 42.94L1473.1 80.44L1408.15 42.94L1408.15 -32.06zM1473.1 155.44L1538.06 192.94L1538.06 267.94L1473.1 305.44L1408.15 267.94L1408.15 192.94zM1538.06 267.94L1603.01 305.44L1603.01 380.44L1538.06 417.94L1473.1 380.44L1473.1 305.44zM1473.1 380.44L1538.06 417.94L1538.06 492.94L1473.1 530.44L1408.15 492.94L1408.15 417.94zM1538.06 492.94L1603.01 530.44L1603.01 605.44L1538.06 642.94L1473.1 605.44L1473.1 530.44z" stroke="#03305d" stroke-width="2"></path><path d="M166.53 -69.56 a7.5 7.5 0 1 0 15 0 a7.5 7.5 0 1 0 -15 0zM231.48 -32.06 a7.5 7.5 0 1 0 15 0 a7.5 7.5 0 1 0 -15 0zM231.48 42.94 a7.5 7.5 0 1 0 15 0 a7.5 7.5 0 1 0 -15 0zM166.53 80.44 a7.5 7.5 0 1 0 15 0 a7.5 7.5 0 1 0 -15 0zM101.57 42.94 a7.5 7.5 0 1 0 15 0 a7.5 7.5 0 1 0 -15 0zM101.57 -32.06 a7.5 7.5 0 1 0 15 0 a7.5 7.5 0 1 0 -15 0zM166.53 380.44 a7.5 7.5 0 1 0 15 0 a7.5 7.5 0 1 0 -15 0zM231.48 417.94 a7.5 7.5 0 1 0 15 0 a7.5 7.5 0 1 0 -15 0zM231.48 492.94 a7.5 7.5 0 1 0 15 0 a7.5 7.5 0 1 0 -15 0zM166.53 530.44 a7.5 7.5 0 1 0 15 0 a7.5 7.5 0 1 0 -15 0zM101.57 492.94 a7.5 7.5 0 1 0 15 0 a7.5 7.5 0 1 0 -15 0zM101.57 417.94 a7.5 7.5 0 1 0 15 0 a7.5 7.5 0 1 0 -15 0zM296.44 155.44 a7.5 7.5 0 1 0 15 0 a7.5 7.5 0 1 0 -15 0zM361.39 192.94 a7.5 7.5 0 1 0 15 0 a7.5 7.5 0 1 0 -15 0zM361.39 267.94 a7.5 7.5 0 1 0 15 0 a7.5 7.5 0 1 0 -15 0zM296.44 305.44 a7.5 7.5 0 1 0 15 0 a7.5 7.5 0 1 0 -15 0zM231.48 267.94 a7.5 7.5 0 1 0 15 0 a7.5 7.5 0 1 0 -15 0zM231.48 192.94 a7.5 7.5 0 1 0 15 0 a7.5 7.5 0 1 0 -15 0zM426.34 305.44 a7.5 7.5 0 1 0 15 0 a7.5 7.5 0 1 0 -15 0zM426.34 380.44 a7.5 7.5 0 1 0 15 0 a7.5 7.5 0 1 0 -15 0zM361.39 417.94 a7.5 7.5 0 1 0 15 0 a7.5 7.5 0 1 0 -15 0zM296.44 380.44 a7.5 7.5 0 1 0 15 0 a7.5 7.5 0 1 0 -15 0zM361.39 492.94 a7.5 7.5 0 1 0 15 0 a7.5 7.5 0 1 0 -15 0zM296.44 530.44 a7.5 7.5 0 1 0 15 0 a7.5 7.5 0 1 0 -15 0zM426.34 155.44 a7.5 7.5 0 1 0 15 0 a7.5 7.5 0 1 0 -15 0zM491.3 192.94 a7.5 7.5 0 1 0 15 0 a7.5 7.5 0 1 0 -15 0zM491.3 267.94 a7.5 7.5 0 1 0 15 0 a7.5 7.5 0 1 0 -15 0zM491.3 492.94 a7.5 7.5 0 1 0 15 0 a7.5 7.5 0 1 0 -15 0zM556.25 530.44 a7.5 7.5 0 1 0 15 0 a7.5 7.5 0 1 0 -15 0zM556.25 605.44 a7.5 7.5 0 1 0 15 0 a7.5 7.5 0 1 0 -15 0zM491.3 642.94 a7.5 7.5 0 1 0 15 0 a7.5 7.5 0 1 0 -15 0zM426.34 605.44 a7.5 7.5 0 1 0 15 0 a7.5 7.5 0 1 0 -15 0zM426.34 530.44 a7.5 7.5 0 1 0 15 0 a7.5 7.5 0 1 0 -15 0zM621.2 42.94 a7.5 7.5 0 1 0 15 0 a7.5 7.5 0 1 0 -15 0zM686.16 80.44 a7.5 7.5 0 1 0 15 0 a7.5 7.5 0 1 0 -15 0zM686.16 155.44 a7.5 7.5 0 1 0 15 0 a7.5 7.5 0 1 0 -15 0zM621.2 192.94 a7.5 7.5 0 1 0 15 0 a7.5 7.5 0 1 0 -15 0zM556.25 155.44 a7.5 7.5 0 1 0 15 0 a7.5 7.5 0 1 0 -15 0zM556.25 80.44 a7.5 7.5 0 1 0 15 0 a7.5 7.5 0 1 0 -15 0zM621.2 267.94 a7.5 7.5 0 1 0 15 0 a7.5 7.5 0 1 0 -15 0zM556.25 305.44 a7.5 7.5 0 1 0 15 0 a7.5 7.5 0 1 0 -15 0zM556.25 380.44 a7.5 7.5 0 1 0 15 0 a7.5 7.5 0 1 0 -15 0zM621.2 417.94 a7.5 7.5 0 1 0 15 0 a7.5 7.5 0 1 0 -15 0zM621.2 492.94 a7.5 7.5 0 1 0 15 0 a7.5 7.5 0 1 0 -15 0zM491.3 417.94 a7.5 7.5 0 1 0 15 0 a7.5 7.5 0 1 0 -15 0zM686.16 530.44 a7.5 7.5 0 1 0 15 0 a7.5 7.5 0 1 0 -15 0zM686.16 605.44 a7.5 7.5 0 1 0 15 0 a7.5 7.5 0 1 0 -15 0zM621.2 642.94 a7.5 7.5 0 1 0 15 0 a7.5 7.5 0 1 0 -15 0zM686.16 380.44 a7.5 7.5 0 1 0 15 0 a7.5 7.5 0 1 0 -15 0zM751.11 417.94 a7.5 7.5 0 1 0 15 0 a7.5 7.5 0 1 0 -15 0zM751.11 492.94 a7.5 7.5 0 1 0 15 0 a7.5 7.5 0 1 0 -15 0zM816.06 -69.56 a7.5 7.5 0 1 0 15 0 a7.5 7.5 0 1 0 -15 0zM881.02 -32.06 a7.5 7.5 0 1 0 15 0 a7.5 7.5 0 1 0 -15 0zM881.02 42.94 a7.5 7.5 0 1 0 15 0 a7.5 7.5 0 1 0 -15 0zM816.06 80.44 a7.5 7.5 0 1 0 15 0 a7.5 7.5 0 1 0 -15 0zM751.11 42.94 a7.5 7.5 0 1 0 15 0 a7.5 7.5 0 1 0 -15 0zM751.11 -32.06 a7.5 7.5 0 1 0 15 0 a7.5 7.5 0 1 0 -15 0zM816.06 155.44 a7.5 7.5 0 1 0 15 0 a7.5 7.5 0 1 0 -15 0zM881.02 192.94 a7.5 7.5 0 1 0 15 0 a7.5 7.5 0 1 0 -15 0zM881.02 267.94 a7.5 7.5 0 1 0 15 0 a7.5 7.5 0 1 0 -15 0zM816.06 305.44 a7.5 7.5 0 1 0 15 0 a7.5 7.5 0 1 0 -15 0zM751.11 267.94 a7.5 7.5 0 1 0 15 0 a7.5 7.5 0 1 0 -15 0zM751.11 192.94 a7.5 7.5 0 1 0 15 0 a7.5 7.5 0 1 0 -15 0zM881.02 492.94 a7.5 7.5 0 1 0 15 0 a7.5 7.5 0 1 0 -15 0zM945.97 530.44 a7.5 7.5 0 1 0 15 0 a7.5 7.5 0 1 0 -15 0zM945.97 605.44 a7.5 7.5 0 1 0 15 0 a7.5 7.5 0 1 0 -15 0zM881.02 642.94 a7.5 7.5 0 1 0 15 0 a7.5 7.5 0 1 0 -15 0zM816.06 605.44 a7.5 7.5 0 1 0 15 0 a7.5 7.5 0 1 0 -15 0zM816.06 530.44 a7.5 7.5 0 1 0 15 0 a7.5 7.5 0 1 0 -15 0zM1010.93 42.94 a7.5 7.5 0 1 0 15 0 a7.5 7.5 0 1 0 -15 0zM1075.88 80.44 a7.5 7.5 0 1 0 15 0 a7.5 7.5 0 1 0 -15 0zM1075.88 155.44 a7.5 7.5 0 1 0 15 0 a7.5 7.5 0 1 0 -15 0zM1010.93 192.94 a7.5 7.5 0 1 0 15 0 a7.5 7.5 0 1 0 -15 0zM945.97 155.44 a7.5 7.5 0 1 0 15 0 a7.5 7.5 0 1 0 -15 0zM945.97 80.44 a7.5 7.5 0 1 0 15 0 a7.5 7.5 0 1 0 -15 0zM1010.93 267.94 a7.5 7.5 0 1 0 15 0 a7.5 7.5 0 1 0 -15 0zM945.97 305.44 a7.5 7.5 0 1 0 15 0 a7.5 7.5 0 1 0 -15 0zM945.97 380.44 a7.5 7.5 0 1 0 15 0 a7.5 7.5 0 1 0 -15 0zM1010.93 417.94 a7.5 7.5 0 1 0 15 0 a7.5 7.5 0 1 0 -15 0zM1010.93 492.94 a7.5 7.5 0 1 0 15 0 a7.5 7.5 0 1 0 -15 0zM881.02 417.94 a7.5 7.5 0 1 0 15 0 a7.5 7.5 0 1 0 -15 0zM1075.88 530.44 a7.5 7.5 0 1 0 15 0 a7.5 7.5 0 1 0 -15 0zM1075.88 605.44 a7.5 7.5 0 1 0 15 0 a7.5 7.5 0 1 0 -15 0zM1010.93 642.94 a7.5 7.5 0 1 0 15 0 a7.5 7.5 0 1 0 -15 0zM1205.79 380.44 a7.5 7.5 0 1 0 15 0 a7.5 7.5 0 1 0 -15 0zM1270.74 417.94 a7.5 7.5 0 1 0 15 0 a7.5 7.5 0 1 0 -15 0zM1270.74 492.94 a7.5 7.5 0 1 0 15 0 a7.5 7.5 0 1 0 -15 0zM1205.79 530.44 a7.5 7.5 0 1 0 15 0 a7.5 7.5 0 1 0 -15 0zM1140.83 492.94 a7.5 7.5 0 1 0 15 0 a7.5 7.5 0 1 0 -15 0zM1140.83 417.94 a7.5 7.5 0 1 0 15 0 a7.5 7.5 0 1 0 -15 0zM1335.69 530.44 a7.5 7.5 0 1 0 15 0 a7.5 7.5 0 1 0 -15 0zM1335.69 605.44 a7.5 7.5 0 1 0 15 0 a7.5 7.5 0 1 0 -15 0zM1270.74 642.94 a7.5 7.5 0 1 0 15 0 a7.5 7.5 0 1 0 -15 0zM1205.79 605.44 a7.5 7.5 0 1 0 15 0 a7.5 7.5 0 1 0 -15 0zM1400.65 42.94 a7.5 7.5 0 1 0 15 0 a7.5 7.5 0 1 0 -15 0zM1465.6 80.44 a7.5 7.5 0 1 0 15 0 a7.5 7.5 0 1 0 -15 0zM1465.6 155.44 a7.5 7.5 0 1 0 15 0 a7.5 7.5 0 1 0 -15 0zM1400.65 192.94 a7.5 7.5 0 1 0 15 0 a7.5 7.5 0 1 0 -15 0zM1335.69 155.44 a7.5 7.5 0 1 0 15 0 a7.5 7.5 0 1 0 -15 0zM1335.69 80.44 a7.5 7.5 0 1 0 15 0 a7.5 7.5 0 1 0 -15 0zM1400.65 267.94 a7.5 7.5 0 1 0 15 0 a7.5 7.5 0 1 0 -15 0zM1335.69 305.44 a7.5 7.5 0 1 0 15 0 a7.5 7.5 0 1 0 -15 0zM1270.74 267.94 a7.5 7.5 0 1 0 15 0 a7.5 7.5 0 1 0 -15 0zM1270.74 192.94 a7.5 7.5 0 1 0 15 0 a7.5 7.5 0 1 0 -15 0zM1465.6 -69.56 a7.5 7.5 0 1 0 15 0 a7.5 7.5 0 1 0 -15 0zM1530.56 -32.06 a7.5 7.5 0 1 0 15 0 a7.5 7.5 0 1 0 -15 0zM1530.56 42.94 a7.5 7.5 0 1 0 15 0 a7.5 7.5 0 1 0 -15 0zM1400.65 -32.06 a7.5 7.5 0 1 0 15 0 a7.5 7.5 0 1 0 -15 0zM1530.56 192.94 a7.5 7.5 0 1 0 15 0 a7.5 7.5 0 1 0 -15 0zM1530.56 267.94 a7.5 7.5 0 1 0 15 0 a7.5 7.5 0 1 0 -15 0zM1465.6 305.44 a7.5 7.5 0 1 0 15 0 a7.5 7.5 0 1 0 -15 0zM1595.51 305.44 a7.5 7.5 0 1 0 15 0 a7.5 7.5 0 1 0 -15 0zM1595.51 380.44 a7.5 7.5 0 1 0 15 0 a7.5 7.5 0 1 0 -15 0zM1530.56 417.94 a7.5 7.5 0 1 0 15 0 a7.5 7.5 0 1 0 -15 0zM1465.6 380.44 a7.5 7.5 0 1 0 15 0 a7.5 7.5 0 1 0 -15 0zM1530.56 492.94 a7.5 7.5 0 1 0 15 0 a7.5 7.5 0 1 0 -15 0zM1465.6 530.44 a7.5 7.5 0 1 0 15 0 a7.5 7.5 0 1 0 -15 0zM1400.65 492.94 a7.5 7.5 0 1 0 15 0 a7.5 7.5 0 1 0 -15 0zM1400.65 417.94 a7.5 7.5 0 1 0 15 0 a7.5 7.5 0 1 0 -15 0zM1595.51 530.44 a7.5 7.5 0 1 0 15 0 a7.5 7.5 0 1 0 -15 0zM1595.51 605.44 a7.5 7.5 0 1 0 15 0 a7.5 7.5 0 1 0 -15 0zM1530.56 642.94 a7.5 7.5 0 1 0 15 0 a7.5 7.5 0 1 0 -15 0zM1465.6 605.44 a7.5 7.5 0 1 0 15 0 a7.5 7.5 0 1 0 -15 0z" fill="#03305d"></path><path d="M75.7 38.41L119 63.41L119 113.41L75.7 138.41L32.4 113.41L32.4 63.41zM162.31 188.41L205.61 213.41L205.61 263.41L162.31 288.41L119 263.41L119 213.41zM248.91 38.41L292.21 63.41L292.21 113.41L248.91 138.41L205.61 113.41L205.61 63.41zM248.91 488.41L292.21 513.41L292.21 563.41L248.91 588.41L205.61 563.41L205.61 513.41zM292.21 113.41L335.52 138.41L335.52 188.41L292.21 213.41L248.91 188.41L248.91 138.41zM335.52 188.41L378.82 213.41L378.82 263.41L335.52 288.41L292.21 263.41L292.21 213.41zM292.21 413.41L335.52 438.41L335.52 488.41L292.21 513.41L248.91 488.41L248.91 438.41zM378.82 -36.59L422.12 -11.59L422.12 38.41L378.82 63.41L335.52 38.41L335.52 -11.59zM422.12 38.41L465.43 63.41L465.43 113.41L422.12 138.41L378.82 113.41L378.82 63.41zM378.82 263.41L422.12 288.41L422.12 338.41L378.82 363.41L335.52 338.41L335.52 288.41zM465.43 263.41L508.73 288.41L508.73 338.41L465.43 363.41L422.12 338.41L422.12 288.41zM465.43 413.41L508.73 438.41L508.73 488.41L465.43 513.41L422.12 488.41L422.12 438.41zM595.33 188.41L638.63 213.41L638.63 263.41L595.33 288.41L552.03 263.41L552.03 213.41zM638.63 113.41L681.94 138.41L681.94 188.41L638.63 213.41L595.33 188.41L595.33 138.41zM681.94 188.41L725.24 213.41L725.24 263.41L681.94 288.41L638.63 263.41L638.63 213.41zM725.24 -36.59L768.54 -11.59L768.54 38.41L725.24 63.41L681.94 38.41L681.94 -11.59zM725.24 113.41L768.54 138.41L768.54 188.41L725.24 213.41L681.94 188.41L681.94 138.41zM855.15 38.41L898.45 63.41L898.45 113.41L855.15 138.41L811.85 113.41L811.85 63.41zM811.85 113.41L855.15 138.41L855.15 188.41L811.85 213.41L768.54 188.41L768.54 138.41zM1028.36 188.41L1071.66 213.41L1071.66 263.41L1028.36 288.41L985.06 263.41L985.06 213.41zM1028.36 338.41L1071.66 363.41L1071.66 413.41L1028.36 438.41L985.06 413.41L985.06 363.41zM1028.36 488.41L1071.66 513.41L1071.66 563.41L1028.36 588.41L985.06 563.41L985.06 513.41zM1071.66 -36.59L1114.96 -11.59L1114.96 38.41L1071.66 63.41L1028.36 38.41L1028.36 -11.59zM1114.96 488.41L1158.27 513.41L1158.27 563.41L1114.96 588.41L1071.66 563.41L1071.66 513.41zM1158.27 -36.59L1201.57 -11.59L1201.57 38.41L1158.27 63.41L1114.96 38.41L1114.96 -11.59zM1158.27 413.41L1201.57 438.41L1201.57 488.41L1158.27 513.41L1114.96 488.41L1114.96 438.41zM1331.48 263.41L1374.78 288.41L1374.78 338.41L1331.48 363.41L1288.17 338.41L1288.17 288.41zM1418.08 113.41L1461.38 138.41L1461.38 188.41L1418.08 213.41L1374.78 188.41L1374.78 138.41z" stroke="rgba(6, 80, 156, 0.93)" stroke-width="2"></path></g><defs><mask id="SvgjsMask1000"><rect width="1440" height="560" fill="#ffffff"></rect></mask></defs></svg>